<svg xmlns="http://www.w3.org/2000/svg" viewBox="0 0 44 59" fill="none" aria-labelledby="aidw918n3i7jn9px10z4snwzgyrqurtv" class="h-12 w-auto hidden lg:block text-gray-800 dark:text-gray-300"><title>Odin Book</title><path fill-rule="evenodd" clip-rule="evenodd" d="m8.69 34.733 4.458-15.443h17.835l4.459 15.443z" fill="#eed9c3"/><ellipse cx="27.785" cy="27.122" rx="1.26" ry="1.243" fill="#353535"/><path fill-rule="evenodd" clip-rule="evenodd" d="M19.446 25.71a.79.79 0 0 0-.797-.787h-3.757a.79.79 0 0 0-.796.786v2.434c0 .65.534 1.178 1.194 1.178h1.368c.74 0 1.448-.29 1.971-.806a2.73 2.73 0 0 0 .817-1.944z" fill="#a78347"/><path fill-rule="evenodd" clip-rule="evenodd" d="M35 4.53 43.852 0 39 18l-4 4zm-26.149 0L.001 0l4.85 18 4 4z" fill="#e3b261"/><path fill-rule="evenodd" clip-rule="evenodd" d="M35.442 12.744s-6.688-4.398-13.376-4.398-13.377 4.398-13.377 4.398v13.193l1.784 3.519c1.28-4.863 7.071-6.889 11.103-3.884l.49.365.49-.365c4.031-3.005 9.823-.98 11.102 3.884l1.784-3.519z" fill="#e3b261"/><path fill-rule="evenodd" clip-rule="evenodd" d="m17.607 32.534-3.567 20.67-4.919-3.518 4.027-14.953z" fill="#d4d4d4"/><path fill-rule="evenodd" clip-rule="evenodd" d="m26.524 32.534 3.567 20.67 4.919-3.518-4.027-14.953z" fill="#d5d5d5"/><path fill-rule="evenodd" clip-rule="evenodd" d="M8.69 25.937 5.121 39.131l4.46 8.796 3.566-13.194zm26.752 0 3.567 13.194-4.459 8.796-3.567-13.194zm-17.835 6.597-4.013 21.55 8.472 4.397 8.471-4.397-4.013-21.55-4.126-2.035-.332-.164z" fill="#e6e6e6"/><path fill-rule="evenodd" clip-rule="evenodd" d="M23.664 33.414h-3.122v1.1c0 .408.165.8.457 1.088s.69.45 1.103.45h.002c.414 0 .81-.162 1.103-.45s.457-.68.457-1.088z" fill="#353535"/></svg>
